<svg width="147" height="55" viewBox="0 0 147 55" fill="none" xmlns="http://www.w3.org/2000/svg">
<path fill-rule="evenodd" clip-rule="evenodd" d="M24.4158 1.57366C14.8894 2.50615 17.8374 4.46255 23.4058 4.20657C31.54 3.84089 58.2082 2.26845 79.2535 2.46958C107.423 2.74384 116.922 2.65242 127.567 3.65805C136.466 4.5174 137.449 4.37113 139.796 7.68056C142.034 10.862 142.744 15.9633 141.488 21.7593C141.352 22.4176 141.106 24.8859 140.943 27.2446C140.014 40.7749 139.168 43.3712 134.883 45.5653C131.716 47.1743 132.672 47.1012 103.956 48.1982C78.1344 49.1856 30.0933 52.367 21.4132 52.5133C11.6958 52.6778 10.2491 51.6174 8.14732 48.8382C2.55176 41.3782 4.81731 17.2797 7.51951 9.81981C8.66594 6.67493 10.331 4.97451 13.6338 3.74947C15.5172 3.03639 15.6537 2.81698 14.3981 2.41473C7.98354 0.330335 2.71551 5.6693 1.15964 15.8353C-0.996748 30.0238 0.422675 42.2193 0.914004 43.7552C3.42524 51.6356 11.4228 55.0182 22.7234 54.9999C33.6418 54.9816 71.5014 52.1659 98.7702 51.0323C133.791 49.5878 134.774 50.1181 138.841 47.5948C141.27 46.0773 143.072 43.7917 144 40.5737C145.583 34.9605 145.856 24.0449 146.429 21.0463C147.712 14.2629 146.811 8.99702 143.945 5.81558C140.615 2.1039 135.238 1.90277 128.932 1.37253C120.743 0.696018 118.478 0.220629 99.7255 0.110924C94.239 0.0560712 45.5975 -0.510737 24.4158 1.57366Z" fill="black"/>
</svg>
