<svg width="598" height="140" viewBox="0 0 598 140" fill="none" xmlns="http://www.w3.org/2000/svg">
<path fill-rule="evenodd" clip-rule="evenodd" d="M597.074 50.6188C595.394 37.2658 582.984 44.5968 585.57 53.6952C591.645 75.4265 581.563 110.706 566.956 118.888C551.185 127.659 545.627 127.987 400.592 128.052C75.233 128.118 15.1249 123.012 11.1177 94.8662C0.647339 20.0503 23.7856 10.4938 213.158 11.8683C307.78 12.5229 393.87 14.2247 448.42 16.4502C551.315 20.6394 569.153 22.9303 584.019 34.1233C593.713 41.3888 600.047 36.6106 593.196 27.3159C583.243 13.832 554.546 8.53009 475.695 5.65004C469.619 5.45367 455.142 4.79912 443.379 4.34093C334.796 -0.371883 117.373 -1.54943 79.7573 2.31246C19.9077 8.53075 -0.128235 30.3929 0.0010376 89.0412C0.13031 130.278 13.4445 133.42 212.641 138.918C247.801 139.9 484.356 140.423 509.304 139.572C556.485 138.001 572.902 133.092 584.665 116.925C593.455 104.619 599.66 71.6955 597.074 50.6188Z" fill="black"/>
</svg>
