<svg width="877" height="569" viewBox="0 0 877 569" fill="none" xmlns="http://www.w3.org/2000/svg">
<path fill-rule="evenodd" clip-rule="evenodd" d="M3.04048 379.332C7.30236 433.751 24.5596 403.229 19.5385 366.22C7.6921 277.817 17.7788 133.335 38.152 99.2348C60.1563 62.6737 68.2828 61.0693 281.465 53.7932C759.71 37.8029 848.75 55.7363 858.417 170.42C883.847 475.274 851.118 515.397 572.569 518.938C433.394 520.839 306.619 518.054 226.136 511.606C74.3266 499.481 47.7979 490.992 24.4449 446.027C9.21923 416.841 0.549928 436.65 11.8676 474.255C28.3077 528.808 71.2013 549.061 187.494 557.005C196.45 557.513 217.819 559.485 235.172 560.787C395.412 574.775 715.167 569.074 769.941 551.494C857.081 523.222 883.599 433.023 875.54 193.657C869.816 25.3546 849.824 13.1772 556.281 0.362381C504.467 -1.94584 156.679 7.34856 120.121 12.0272C50.9782 20.7191 27.5057 41.5492 12.3842 108.105C1.11478 158.755 -3.58787 293.432 3.04048 379.332Z" fill="black"/>
</svg>
